<mxfile host="app.diagrams.net" modified="2024-03-19T22:47:57.209Z" agent="Mozilla/5.0 (X11; Linux x86_64) AppleWebKit/537.36 (KHTML, like Gecko) Chrome/91.0.4472.114 Safari/537.36" version="24.0.7" etag="dBnIDlJoonzd7qDJb0Iu" type="github">
  <diagram name="PÃ¡gina-1" id="79v2qcx49L8TnUrCpbxu">
    <mxGraphModel>
      <root>
        <mxCell id="0" />
        <mxCell id="1" parent="0" />
      </root>
    </mxGraphModel>
  </diagram>
</mxfile>
